<svg width="20" height="23" viewBox="0 0 20 23" fill="none" xmlns="http://www.w3.org/2000/svg">
<path d="M16.6667 12.2237H15.9111L13.6889 14.4459H15.8111L17.7778 16.6682H2.22222L4.2 14.4459H6.47778L4.25556 12.2237H3.33333L0 15.557V20.0015C0 20.5909 0.234126 21.1561 0.650874 21.5728C1.06762 21.9896 1.63285 22.2237 2.22222 22.2237H17.7778C18.3671 22.2237 18.9324 21.9896 19.3491 21.5728C19.7659 21.1561 20 20.5909 20 20.0015V15.557L16.6667 12.2237ZM15.5556 6.6126L10.0556 12.1126L6.11111 8.17927L11.6222 2.67927L15.5556 6.6126ZM10.8444 0.323713L3.76667 7.40149C3.66366 7.50428 3.58194 7.62638 3.52619 7.7608C3.47043 7.89521 3.44173 8.0393 3.44173 8.18482C3.44173 8.33035 3.47043 8.47444 3.52619 8.60885C3.58194 8.74327 3.66366 8.86537 3.76667 8.96816L9.26667 14.4459C9.7 14.9015 10.4 14.9015 10.8333 14.4459L17.9 7.40149C18.003 7.2987 18.0847 7.1766 18.1405 7.04219C18.1962 6.90777 18.2249 6.76368 18.2249 6.61816C18.2249 6.47264 18.1962 6.32855 18.1405 6.19413C18.0847 6.05972 18.003 5.93762 17.9 5.83483L12.4 0.334825C12.2998 0.229938 12.1795 0.146256 12.0463 0.0887443C11.9131 0.0312329 11.7697 0.00106395 11.6246 2.76375e-05C11.4795 -0.00100868 11.3357 0.0271088 11.2017 0.0827115C11.0677 0.138314 10.9462 0.220269 10.8444 0.323713Z" fill="black"/>
</svg>
