<svg id="_x31_" enable-background="new 0 0 24 24" height="512" viewBox="0 0 24 24" width="512" xmlns="http://www.w3.org/2000/svg"><g><g><path d="m21.5 24h-19c-1.379 0-2.5-1.122-2.5-2.5v-15c0-1.378 1.121-2.5 2.5-2.5h5.5c.276 0 .5.224.5.5s-.224.5-.5.5h-5.5c-.827 0-1.5.673-1.5 1.5v15c0 .827.673 1.5 1.5 1.5h19c.827 0 1.5-.673 1.5-1.5v-15c0-.827-.673-1.5-1.5-1.5h-5.5c-.276 0-.5-.224-.5-.5s.224-.5.5-.5h5.5c1.379 0 2.5 1.122 2.5 2.5v15c0 1.378-1.121 2.5-2.5 2.5z"/></g></g><g><g><path d="m23.5 14h-23c-.276 0-.5-.224-.5-.5s.224-.5.5-.5h23c.276 0 .5.224.5.5s-.224.5-.5.5z"/></g></g><g><g><path d="m18 10h-12c-.276 0-.5-.224-.5-.5s.224-.5.5-.5h12c.276 0 .5.224.5.5s-.224.5-.5.5z"/></g></g><g><g><path d="m14.31 10c-.128 0-.257-.049-.354-.147-.194-.196-.194-.512.002-.707l2.995-2.986-4.953-4.953-4.952 4.953 2.995 2.986c.196.195.196.511.002.707-.195.196-.514.195-.707.001l-3.351-3.34c-.094-.094-.147-.221-.147-.353s.053-.261.146-.354l5.66-5.66c.195-.195.512-.195.707 0l5.66 5.66c.094.093.147.221.147.354s-.053.26-.147.354l-3.351 3.34c-.097.096-.224.145-.352.145z"/></g></g></svg>