<svg id="Layer_1" enable-background="new 0 0 512 512" height="512" viewBox="0 0 512 512" width="512" xmlns="http://www.w3.org/2000/svg"><g><path d="m497 512h-482c-8.284 0-15-6.716-15-15v-128.533c0-8.284 6.716-15 15-15h482c8.284 0 15 6.716 15 15v128.533c0 8.284-6.716 15-15 15z" fill="#deb176"/><path d="m512 497v-128.533c0-8.284-6.716-15-15-15h-241v158.533h241c8.284 0 15-6.716 15-15z" fill="#bc8f57"/><path d="m497 383.467h-482c-8.284 0-15-6.716-15-15v-128.534c0-8.284 6.716-15 15-15h482c8.284 0 15 6.716 15 15v128.534c0 8.284-6.716 15-15 15z" fill="#ffd296"/><path d="m512 368.467v-128.534c0-8.284-6.716-15-15-15h-241v158.534h241c8.284 0 15-6.716 15-15z" fill="#deb176"/><path d="m432.733 319.2h-353.466c-8.284 0-15-6.716-15-15s6.716-15 15-15h353.467c8.284 0 15 6.716 15 15s-6.716 15-15.001 15z" fill="#bc8f57"/><path d="m447.733 304.2c0-8.284-6.716-15-15-15h-176.733v30h176.733c8.285 0 15-6.716 15-15z" fill="#9b6e37"/><path d="m400.6 96.4h-289.2c-8.284 0-15 6.716-15 15v192.8c0 8.284 6.716 15 15 15h289.2c8.284 0 15-6.716 15-15v-192.8c0-8.284-6.716-15-15-15z" fill="#fff5f0"/><path d="m415.6 304.2v-192.8c0-8.284-6.716-15-15-15h-144.6v222.8h144.6c8.284 0 15-6.716 15-15z" fill="#f3e4d5"/><path d="m239.934 190.666h-64.267c-8.284 0-15-6.716-15-15s6.716-15 15-15h64.267c8.284 0 15 6.716 15 15s-6.716 15-15 15z" fill="#ff4e00"/><path d="m336.333 254.933h-160.666c-8.284 0-15-6.716-15-15s6.716-15 15-15h160.666c8.284 0 15 6.716 15 15s-6.716 15-15 15z" fill="#464646"/><path d="m351.333 239.933c0-8.284-6.716-15-15-15h-80.333v30h80.333c8.284 0 15-6.716 15-15z" fill="#282828"/><path d="m507.606 68.66-64.266-64.267c-5.856-5.858-15.354-5.858-21.213 0l-27.74 27.74h-138.387c-3.979 0-7.794 1.581-10.606 4.394l-59.873 59.873h182.946c8.284 0 15 6.716 15 15s-6.716 15-15 15h-63.2c-17.747 0-32.133 14.387-32.133 32.133s14.387 32.133 32.133 32.133h95.333c3.979 0 7.794-1.581 10.606-4.394l96.4-96.4c2.814-2.812 4.394-6.627 4.394-10.605s-1.58-7.794-4.394-10.607z" fill="#824332"/><path d="m383.467 111.4c0 8.284-6.716 15-15 15h-63.2c-17.747 0-32.133 14.387-32.133 32.133s14.387 32.133 32.133 32.133h95.333c3.979 0 7.794-1.581 10.606-4.394l96.4-96.4c2.814-2.812 4.394-6.627 4.394-10.605s-1.58-7.793-4.394-10.606l-64.266-64.268c-5.856-5.858-15.354-5.858-21.213 0l-27.74 27.74h-138.387v64.267h112.467c8.284 0 15 6.716 15 15z" fill="#502b1e"/></g></svg>